<?xml version="1.0" encoding="UTF-8"?>
<svg id="Layer_1" data-name="Layer 1" xmlns="http://www.w3.org/2000/svg" viewBox="0 0 703.08 641.552">
  <polygon points="324.2 395.068 337.361 451.302 292.133 399.877 240.209 407.62 264.204 368.077 218.988 316.604 279.057 343.631 303.004 304.088 316.104 360.31 376.149 387.289 324.2 395.068" style="fill: #fff;"/>
  <path d="M518.748,109.309c150.44,114.489,35.951,131.63-81.544,148.334,0,0-49.574-13.66-135.49-56.356C106.862,104.525,168.197,58.919,321.351,31.332,76.255-75.438-128.02,110.466,97.329,291.232l-61.834,44.205c50.792,31.13,156.028,96.458,140.737,196.483l-52.228,37.351,159.522,72.28,125.884-57.037c.913-55.406,99.928-84.174,142.526-196.873,234.504-53.799,174.789-260.083-33.188-278.332ZM281.419,619.285l-118.068-53.519,30.74-21.951c23.29-100.878-45.362-164.988-110.155-208.268l61.018-43.609C-82.427,133.11,51.614-33.448,281.419,29.007c-183.749,32.238-164.258,125.506,130.133,239.216,37.217,113.782-20.246,230.718-130.133,351.063ZM541.465,373.775c-44.595,118.457-138.704,146.215-145.558,199.6l-92.757,42.026c101.158-93.159,196.703-213.467,165.548-344.829,123.169-13.721,193.318-64.257,92.282-143.354,155.748,49.501,189.934,199.819-19.516,246.557Z" style="fill: #fff;"/>
  <path d="M541.465,373.775c-44.595,118.457-138.704,146.215-145.558,199.6l-92.757,42.026c101.158-93.159,196.703-213.467,165.548-344.829,123.169-13.721,193.318-64.257,92.282-143.354,155.748,49.501,189.934,199.819-19.516,246.557Z" style="fill: #eb0028;"/>
  <path d="M411.552,268.223C117.161,154.513,97.67,61.245,281.419,29.007,51.614-33.448-82.427,133.11,144.956,291.938l-61.018,43.609c64.792,43.28,133.444,107.391,110.155,208.268l-30.74,21.951,118.068,53.519c109.887-120.344,167.35-237.28,130.133-351.063ZM337.361,451.302l-45.228-51.425-51.924,7.743,23.996-39.543-45.216-51.474,60.069,27.027,23.947-39.543,13.1,56.222,60.044,26.979-51.948,7.779,13.161,56.234Z" style="fill: #021018;"/>
</svg>