<?xml version="1.0" encoding="UTF-8"?>
<svg id="Layer_1" data-name="Layer 1" xmlns="http://www.w3.org/2000/svg" viewBox="0 0 613.595 515.824">
  <path d="M452.722,87.884c131.301,92.055,31.38,105.835-71.159,119.27,0,0-43.27-10.988-118.248-45.31-170.048-77.808-116.521-114.472,17.135-136.656C66.55-60.65-111.727,88.818,84.943,234.153l-53.968,35.549c44.33,25.028,136.172,77.548,122.828,157.975l-45.578,30.025,139.222,58.122,109.859-45.863c.798-44.549,87.206-67.675,124.385-158.286,204.656-43.261,152.537-209.112-28.969-223.791Z" style="fill: #0080c6;"/>
  <polygon points="275.869 289.692 264.44 244.495 243.541 276.283 191.122 254.558 230.582 295.943 209.637 327.731 254.952 321.507 294.422 362.857 282.945 317.642 328.279 311.392 275.869 289.692" style="fill: #eb0028;"/>
  <path d="M359.171,215.654C102.256,124.231,85.242,49.242,245.606,23.323,45.051-26.889-71.931,107.026,126.504,234.726l-53.245,35.056c56.539,34.806,116.456,86.349,96.13,167.459l-26.829,17.645,103.046,43.027c95.895-96.758,146.053-190.775,113.565-282.259ZM294.422,362.857l-39.469-41.35-45.316,6.224,20.945-31.789-39.46-41.385,52.419,21.726,20.898-31.789,11.43,45.198,52.41,21.7-45.334,6.251,11.477,45.215Z" style="fill: #021018;"/>
  <path d="M489.589,102.283c88.172,63.595,26.951,104.227-80.543,115.267,27.195,105.611-56.192,202.342-144.477,277.245l80.947-33.786c5.987-42.924,88.116-65.246,127.041-160.491,182.782-37.572,152.95-158.433,17.032-198.236Z" style="fill: #021018;"/>
</svg>