<?xml version="1.0" encoding="UTF-8"?>
<svg id="Layer_1" data-name="Layer 1" xmlns="http://www.w3.org/2000/svg" viewBox="0 0 539.503 521.61">
  <path d="M452.057,511.533c-4.864,5.373-4.259,4.704-9.123,10.077l-141.921-66.405v-138.173h-79.003l.002,107.109c17.381,11.426,27.203,21.898,27.21,21.904l-83.653,64.3-12.115-12.036c-44.621-44.579-114.865-35.628-143.828-29.467-2.947-4.048-3.146-4.321-6.093-8.369,8.574-12.463,25.325-32.384,52.104-46.928v-106.997s-51.218-6.385-51.218-53.34c0-28.142,22.458-51.38,51.218-54.366,0-.004.028-32.22.028-32.22-8.58-2.464-55.666-15.828-55.666-70.027C0,56.73,34.085,24.297,75.982,24.297c34.013,0,55.267,9.681,80.616,9.681,30.625,0,65.407-20.238,65.408-20.239l.003,185.07h76.5s1.675.02,2.505.06v-81.355c-.14-74.202-38.325-84.077-38.325-84.077,0,0,45.413-14.462,78.943,4.606,39.47-59.614,107.297-31.346,107.301-31.345,0,0-42.776,31.49-42.881,96.311v104.783l29.912,29.547s-29.912,12.565-29.912,67.094l-.005,85.305c0,49.595,26.89,95.457,46.01,121.794ZM491.644,231.001l-10.437-42.628-19.083,29.983-47.865-20.494,36.032,39.023-19.126,29.975,41.378-5.869,36.041,38.999h0l-10.48-42.642,41.397-5.886-47.858-20.462Z" style="fill: #eb0028;"/>
  <path d="M308.809,449.562l129.765,60.717s-43.786-44.188-43.786-120.54l.006-83.93c0-55.661,27.229-68.47,27.23-68.47l-27.23-26.096v-108.269c.105-59.789,34.387-92.061,34.388-92.061-.015-.003-57.57-15.421-86.202,40.43-23.853-20.437-62.498-14.237-62.499-14.237.001.001,28.189,11.344,28.329,80.305v90.961c-2.199-.423-4.474-.649-6.804-.649h-91.251V26.748s-25.425,16.294-55.887,16.294c-35.249,0-43.446-9.681-80.616-9.681-36.644,0-66.455,28.367-66.455,63.234,0,43.185,32.31,58.07,56.157,63.177-.328,2.513-.52,5.132-.52,7.891v39.911h-3.249c-26.451,0-47.969,20.471-47.969,45.635,0,36.609,38.99,43.629,38.99,43.629,0-.002-6.455-10.022-5.94-18.346.366-5.916,4.322-10.975,12.437-10.975h5.73v139.545l2.717-.664c29.024-7.093,49.316-31.983,49.316-60.491V115.115c3.487.711,6.707,1.27,9.314,1.501v287.83c-74.88,1.83-113.727,56.873-113.788,56.956,0,0,90.152-26.45,147.613,30.638l6.057,6.018,67.807-52.12s-7.673-8.028-21.715-17.029v-120.792h98.055v141.444ZM69.48,142.139c-2.675-4.402-4.531-9.191-4.531-14.018,0-10.464,8.949-18.975,19.948-18.975,4.254,0,12.28,1.863,20.475,3.742-10.659,3.995-27.097,12.573-35.892,29.251ZM210.753,269.627v-4.514h98.056v4.514h-98.056Z" style="fill: #021018;"/>
  <path d="M64.949,128.122c0,4.827,1.855,9.616,4.531,14.018,8.795-16.678,25.233-25.255,35.892-29.251-8.194-1.879-16.221-3.743-20.475-3.743-10.999,0-19.948,8.512-19.948,18.975Z" style="fill: none;"/>
  <path d="M385.266,305.809h0c0-56.393,24.019-68.534,24.019-68.534l-24.02-22.285-.005-111.746c0-60.144,27.268-85.628,27.268-85.628,0,0-49.087-3.938-67.011,52.636-13.462-24.711-43.911-25.408-43.911-25.408,0,0,16.593,11.895,16.73,72.333v105.929c-4.443-4-10.424-6.469-17.024-6.469h-100.086V40.581s-20.294,11.525-46.36,11.525c-31.471,0-49.65-9.681-80.617-9.681-31.443,0-56.926,24.256-56.926,54.17s28.696,55.442,51.529,55.442c0,0-13.431-9.088-13.431-23.913,0-15.484,13.198-28.04,29.476-28.04,19.075,0,24.01,7.689,49.409,7.912v305.563c-1.905-.082-55.7-4.86-100.264,36.425,17.364-4.207,80.616-14.706,131.444,35.79l52.47-40.331s-6.002-5.334-16.73-11.647v-134.59h117.112v144.715l94.191,44.072s-27.268-31.672-27.268-98.252l.005-83.93ZM318.336,276.379h-117.11v-18.019h117.11v18.019ZM41.13,284.966c-11.579-6.302-19.388-18.159-19.388-31.758,0-20.197,17.21-36.571,38.441-36.571h12.535v-43.927c0-26.771,13.388-44.877,33.46-51.733h0v227.404c0,20.289-13.388,38.396-33.46,45.252v-135.181h-15.015c-10.416,0-18.86,8.033-18.86,17.943,0,3.103.829,6.023,2.288,8.571Z" style="fill: #0080c6;"/>
  <path d="M41.13,284.966h0s0,0,0,0h0ZM72.718,216.636l16.73,20.906v-79.473c0-14.023,6.048-27.431,16.73-37.093h0c-20.072,6.857-33.46,24.963-33.46,51.733v43.927ZM68.852,152.035s-13.431-9.088-13.431-23.913c0-15.484,13.198-28.04,29.476-28.04,19.075,0,24.01,7.689,49.409,7.912v305.563c12.231.525,23.46,2.686,33.46,5.657V74.287c-31.624,18.961-59.355-4.474-85.724-4.474-24.419,0-44.215,18.832-44.215,42.063,0,18.931,12.928,34.734,31.025,40.159ZM412.528,487.991l-60.728-64.877V143.982c0-72.644-50.191-99.137-50.195-99.139h0s16.593,11.895,16.73,72.333v105.929c4.772,4.299,7.771,10.373,7.771,17.119v3.972c-1.494-3.994-5.492-6.858-10.203-6.858h-130.633l15.955,21.021h117.11v40.844s-12.6-11.46-12.6-11.46h-113.349l8.839,11.46h117.112l.005,144.715,94.186,44.072ZM34.042,449.982c17.364-4.207,80.616-14.706,131.444,35.79l3.692-38.155s-57.099-38.316-135.136,2.365ZM41.13,284.965c-1.458-2.548-2.288-5.467-2.288-8.571,0-9.91,8.444-17.943,18.86-17.943h15.015v135.181c10.682-9.662,16.73-23.071,16.73-37.093v-118.995h-30.36c-13.748,0-26.663,10.484-26.663,27.493,0,13.279,8.688,19.916,8.705,19.928ZM409.286,237.275h-57.484s35.225,43.986,35.225,43.986c5.531-35.308,22.26-43.986,22.26-43.986Z" style="fill: #00416b;"/>
</svg>